<svg preserveAspectRatio="none" width="100%" height="100%" overflow="visible" style="display: block;" viewBox="0 0 197 185.805" fill="none" xmlns="http://www.w3.org/2000/svg">
<g id="Frame 2147230626" filter="url(#filter0_d_0_114)">
<foreignObject x="-52" y="-48" width="300.5" height="289.805"><div xmlns="http://www.w3.org/1999/xhtml" style="backdrop-filter:blur(32px);clip-path:url(#bgblur_0_0_114_clip_path);height:100%;width:100%"></div></foreignObject><path id="Rectangle 376714598" data-figma-bg-blur-radius="64" d="M12 21.122C12 18.2932 14.2932 16 17.122 16H143.878C145.237 16 146.54 16.5396 147.5 17.5002L183 52.9998C183.96 53.9604 184.5 55.2632 184.5 56.6216V172.683C184.5 175.511 182.207 177.805 179.378 177.805H17.122C14.2932 177.805 12 175.512 12 172.683L12 21.122Z" fill="url(#paint0_linear_0_114)" fill-opacity="0.32"/>
<path id="Rectangle 376714600" d="M146 16L165.753 34.7402L185 55H153.313C149.274 55 146 51.7261 146 47.6875V16Z" fill="#666666" fill-opacity="0.2"/>
</g>
<defs>
<filter id="filter0_d_0_114" x="0" y="0" width="197" height="186" filterUnits="userSpaceOnUse" color-interpolation-filters="sRGB">
<feFlood flood-opacity="0" result="BackgroundImageFix"/>
<feColorMatrix in="SourceAlpha" type="matrix" values="0 0 0 0 0 0 0 0 0 0 0 0 0 0 0 0 0 0 127 0" result="hardAlpha"/>
<feOffset dy="-4"/>
<feGaussianBlur stdDeviation="6"/>
<feComposite in2="hardAlpha" operator="out"/>
<feColorMatrix type="matrix" values="0 0 0 0 0 0 0 0 0 0 0 0 0 0 0 0 0 0 0.08 0"/>
<feBlend mode="normal" in2="BackgroundImageFix" result="effect1_dropShadow_0_114"/>
<feBlend mode="normal" in="SourceGraphic" in2="effect1_dropShadow_0_114" result="shape"/>
</filter>
<clipPath id="bgblur_0_0_114_clip_path" transform="translate(52 48)"><path d="M12 21.122C12 18.2932 14.2932 16 17.122 16H143.878C145.237 16 146.54 16.5396 147.5 17.5002L183 52.9998C183.96 53.9604 184.5 55.2632 184.5 56.6216V172.683C184.5 175.511 182.207 177.805 179.378 177.805H17.122C14.2932 177.805 12 175.512 12 172.683L12 21.122Z"/>
</clipPath><linearGradient id="paint0_linear_0_114" x1="98.4342" y1="16" x2="98.4341" y2="178" gradientUnits="userSpaceOnUse">
<stop stop-color="#666666"/>
<stop offset="1" stop-color="#666666" stop-opacity="0"/>
</linearGradient>
</defs>
</svg>
