<svg preserveAspectRatio="xMidYMid meet" width="100%" height="100%" overflow="visible" style="display: block;" viewBox="0 0 16 16" fill="none" xmlns="http://www.w3.org/2000/svg">
<g id="Collapse">
<path id="vector" d="M13.5 2.5H14.1V1.9H13.5V2.5ZM2.5 2.5L2.5 1.9L1.9 1.9V2.5L2.5 2.5ZM2.5 13.5H1.9L1.9 14.1H2.5V13.5ZM13.5 13.5V14.1H14.1V13.5H13.5ZM13.5 2.5V1.9L2.5 1.9L2.5 2.5L2.5 3.1L13.5 3.1V2.5ZM2.5 2.5L1.9 2.5L1.9 13.5H2.5H3.1L3.1 2.5L2.5 2.5ZM2.5 13.5V14.1H13.5V13.5V12.9H2.5V13.5ZM13.5 13.5H14.1V2.5H13.5H12.9V13.5H13.5Z" fill="#D4D4D4"/>
<path id="vector_2" d="M8.9 13.5V14.1H10.1V13.5H9.5H8.9ZM10.1 2.5V1.9H8.9V2.5H9.5H10.1ZM9.5 13.5H10.1V2.5H9.5H8.9V13.5H9.5Z" fill="#D4D4D4"/>
<path id="vector_3" d="M5.18971 9.33333L6.52305 8L5.18971 6.66667" stroke="#D4D4D4" stroke-width="1.2" stroke-linecap="square"/>
</g>
</svg>
